# xmcd
#
# Track frame offsets:
#	150
#	18573
#	35319
#	55603
#	72952
#	94149
#	111996
#	130017
#	147637
#	166036
#	183207
#	204106
#	225213
#	247779
#	263951
#	284592
#	303924
#
# Disc length: 4376 seconds
#
# Revision: 0
# Processed by: cddbd v1.5.2PL0 Copyright (c) Steve Scherf et al.
# Submitted via: EasyCDDAExtractor 15.3.0.1
#
DISCID=de111611
DTITLE=烏蘭托婭 - Greatest hits of Wulan Tuoyan
DYEAR=2010
DGENRE=Country
TTITLE0=上馬酒之歌
TTITLE1=我在草原等你來
TTITLE2=我的家鄉內蒙古
TTITLE3=心在雲上飛
TTITLE4=非誠勿尤
TTITLE5=大高原
TTITLE6=夢高原
TTITLE7=夢中香格里拉
TTITLE8=只要和你在一起
TTITLE9=我以雪山來
TTITLE10=我要去西藏
TTITLE11=套马杆
TTITLE12=高完藍
TTITLE13=草原之月
TTITLE14=爱不在就放手
TTITLE15=唱首情歌給草原
TTITLE16=烏蘭巴托的夜 \n烏蘭巴托的夜 \n烏蘭巴托之夜
EXTD=
EXTT0=
EXTT1=
EXTT2=
EXTT3=
EXTT4=
EXTT5=
EXTT6=
EXTT7=
EXTT8=
EXTT9=
EXTT10=
EXTT11=
EXTT12=
EXTT13=
EXTT14=
EXTT15=
EXTT16=
PLAYORDER=
